<svg xmlns="http://www.w3.org/2000/svg" xmlns:xlink="http://www.w3.org/1999/xlink" width="100.001" height="64.582" viewBox="0 0 100.001 64.582">
  <defs>
    <clipPath id="clip-path">
      <path id="Combined_Shape" data-name="Combined Shape" d="M8.332,64.582A8.357,8.357,0,0,1,0,56.25H100a8.358,8.358,0,0,1-8.336,8.332ZM83.332,50V12.5a6.136,6.136,0,0,0-6.247-6.247H22.916A6.139,6.139,0,0,0,16.665,12.5V50H10.417V12.5A12.536,12.536,0,0,1,22.916,0H77.085a12.536,12.536,0,0,1,12.5,12.5V50ZM35.625,33.54l-4.376,5.419V17.707L46.459,32.5l-6.874-.626,4.166,10-3.96,1.665Z" fill="#262626"/>
    </clipPath>
  </defs>
  <g id="Gruppe_654" data-name="Gruppe 654" transform="translate(0 -3.5)">
    <path id="Combined_Shape-2" data-name="Combined Shape" d="M8.332,64.582A8.357,8.357,0,0,1,0,56.25H100a8.358,8.358,0,0,1-8.336,8.332ZM83.332,50V12.5a6.136,6.136,0,0,0-6.247-6.247H22.916A6.139,6.139,0,0,0,16.665,12.5V50H10.417V12.5A12.536,12.536,0,0,1,22.916,0H77.085a12.536,12.536,0,0,1,12.5,12.5V50ZM35.625,33.54l-4.376,5.419V17.707L46.459,32.5l-6.874-.626,4.166,10-3.96,1.665Z" transform="translate(0 3.5)" fill="#262626"/>
  </g>
</svg>
