<?xml version="1.0" encoding="UTF-8"?>
<svg width="24px" height="24px" viewBox="0 0 24 24" version="1.1" xmlns="http://www.w3.org/2000/svg" xmlns:xlink="http://www.w3.org/1999/xlink">
    <title>icon/action/refresh/default@svg</title>
    <g id="icon/action/refresh/default" stroke="none" stroke-width="1" fill="none" fill-rule="evenodd">
        <path d="M13.35,2.54999996 C13.45,2.14999996 13.85,1.89999996 14.25,1.99999996 C18.9,3.04999996 22.25,7.24999998 22.25,12 C22.25,15.15 20.75,18.15 18.25,20.1 L18.25,20.1 L19.85,22.5 L13.2,22.5 L15.9,16.35 L17.5,18.8 C19.5,17.15 20.75,14.65 20.75,12 C20.75,7.94999998 17.85,4.34999997 13.9,3.44999996 C13.5,3.34999996 13.25,2.94999996 13.35,2.54999996 Z M10.8,1.49999996 L8.09999998,7.64999998 L6.49999998,5.19999997 C4.49999997,6.79999998 3.24999996,9.29999999 3.24999996,12 C3.24999996,16.05 6.14999998,19.65 10.1,20.55 C10.5,20.65 10.75,21.05 10.65,21.45 C10.55,21.85 10.15,22.1 9.74999996,22 C5.09999997,20.95 1.74999996,16.75 1.74999996,12 C1.74999996,8.79999999 3.24999996,5.84999997 5.69999997,3.89999997 L5.69999997,3.89999997 L4.09999997,1.49999996 L10.8,1.49999996 Z" id="Combined-Shape" fill="#262626"></path>
    </g>
</svg>