<?xml version="1.0" encoding="UTF-8"?>
<svg width="24px" height="24px" viewBox="0 0 24 24" version="1.1" xmlns="http://www.w3.org/2000/svg" xmlns:xlink="http://www.w3.org/1999/xlink">
    <title>/svg/icon/action/add/default</title>
    <g id="icon/action/add/default" stroke="none" stroke-width="1" fill="none" fill-rule="evenodd">
        <path d="M18.5005,11.25 L12.7505,11.25 L12.7505,5.5 C12.7505,5.086 12.4145,4.75 12.0005,4.75 C11.5865,4.75 11.2505,5.086 11.2505,5.5 L11.2505,11.25 L5.5005,11.25 C5.0865,11.25 4.7505,11.586 4.7505,12 C4.7505,12.414 5.0865,12.75 5.5005,12.75 L11.2505,12.75 L11.2505,18.5 C11.2505,18.914 11.5865,19.25 12.0005,19.25 C12.4145,19.25 12.7505,18.914 12.7505,18.5 L12.7505,12.75 L18.5005,12.75 C18.9145,12.75 19.2505,12.414 19.2505,12 C19.2505,11.586 18.9145,11.25 18.5005,11.25" id="Icon" fill="#000000"></path>
    </g>
</svg>