<?xml version="1.0" encoding="UTF-8"?>
<svg width="24px" height="24px" viewBox="0 0 24 24" version="1.1" xmlns="http://www.w3.org/2000/svg" xmlns:xlink="http://www.w3.org/1999/xlink">
    <title>/svg/icon/content/cloud-security/default</title>
    <g id="icon/content/cloud-security/default" stroke="none" stroke-width="1" fill="none" fill-rule="evenodd">
        <path d="M11.9998,9.3253 C13.9958,9.3253 15.6198,10.9493 15.6198,12.9453 L15.6198,14.0003 L16.9998,14.0003 L16.9998,19.5003 C16.9998,20.3283 16.3288,21.0003 15.4998,21.0003 L8.4998,21.0003 C7.6718,21.0003 6.9998,20.3283 6.9998,19.5003 L6.9998,14.0003 L8.3808,14.0003 L8.3808,12.9453 C8.3808,10.9493 10.0048,9.3253 11.9998,9.3253 Z M13.5118,2.1743 C16.7258,2.1743 19.5578,4.1633 20.6598,7.1563 C22.5478,8.1423 23.7498,10.1073 23.7498,12.2503 C23.7498,15.2543 21.4328,17.7223 18.4938,17.9743 L18.4938,16.4683 C20.6048,16.2223 22.2498,14.4253 22.2498,12.2503 C22.2498,10.5853 21.2658,9.0643 19.7428,8.3783 L19.4388,8.2403 L19.3378,7.9233 C18.5218,5.3823 16.1808,3.6743 13.5118,3.6743 C11.9958,3.6743 10.5378,4.2393 9.4068,5.2653 L9.0788,5.5633 L8.6598,5.4203 C8.3188,5.3033 7.9708,5.2443 7.6218,5.2443 C5.8498,5.2443 4.4088,6.6853 4.4088,8.4573 L4.4418,9.1183 L3.9738,9.3273 C2.6228,9.9303 1.7498,11.2743 1.7498,12.7503 C1.7498,14.7515903 3.32503413,16.3913822 5.30091947,16.4950927 L5.5058,16.5003 L5.5058,18.0003 C2.6048,18.0003 0.2498,15.6443 0.2498,12.7503 C0.2498,10.8503 1.2818,9.1073 2.9168,8.1823 C3.0588,5.7113 5.1148,3.7443 7.6218,3.7443 C7.9908,3.7443 8.3598,3.7893 8.7228,3.8773 C10.0798,2.7763 11.7648,2.1743 13.5118,2.1743 Z M11.9998,10.8253 C10.8318,10.8253 9.8808,11.7763 9.8808,12.9453 L9.8808,14.0003 L14.1198,14.0003 L14.1198,12.9453 C14.1198,11.7763 13.1688,10.8253 11.9998,10.8253 Z" id="Icon" fill="#000000"></path>
    </g>
</svg>