<?xml version="1.0" encoding="UTF-8"?>
<svg width="24px" height="24px" viewBox="0 0 24 24" version="1.1" xmlns="http://www.w3.org/2000/svg" xmlns:xlink="http://www.w3.org/1999/xlink">
    <title>/svg/icon/action/logout/default</title>
    <g id="icon/action/logout/default" stroke="none" stroke-width="1" fill="none" fill-rule="evenodd">
        <path d="M14,1.99999996 L14,6.99999996 L12.5,6.99999996 L12.5,3.49999996 L5.74999997,3.49999996 C4.55208329,3.49999996 3.58376732,4.41840274 3.50515404,5.59510631 L3.49999996,5.74999997 L3.49999996,17.75 C3.49999996,18.9479166 4.41840274,19.9162326 5.59510631,19.9948459 L5.74999997,20 L12.5,20 L12.5,16.5 L14,16.5 L14,21.5 L5.74999997,21.5 C3.766129,21.5 2.11004158,19.9079085 2.00526161,17.9472492 L1.99999996,17.75 L1.99999996,5.74999997 C1.99999996,3.766129 3.59209154,2.11004158 5.5527508,2.00526161 L5.74999997,1.99999996 L14,1.99999996 Z M16.5,7.34999998 L23.25,11.75 L16.5,16.15 L16.5,12.5 L7.24999998,12.5 C6.84999998,12.5 6.49999998,12.15 6.49999998,11.75 C6.49999998,11.3833333 6.7940972,11.0586805 7.15121526,11.0071181 L7.24999998,11 L16.5,11 L16.5,7.34999998 Z" id="Icon" fill="#000000"></path>
    </g>
</svg>