<?xml version="1.0" encoding="UTF-8"?>
<svg width="24px" height="24px" viewBox="0 0 24 24" version="1.1" xmlns="http://www.w3.org/2000/svg" xmlns:xlink="http://www.w3.org/1999/xlink">
    <title>icon/action/pause/default@svg</title>
    <g id="icon/action/pause/default" stroke="none" stroke-width="1" fill="none" fill-rule="evenodd">
        <path d="M12,0.999999954 C18.075,0.999999954 23,5.92499997 23,12 C23,18.075 18.075,23 12,23 C5.92499997,23 0.999999954,18.075 0.999999954,12 C0.999999954,5.92499997 5.92499997,0.999999954 12,0.999999954 Z M12,2.49999996 C6.75999998,2.49999996 2.49999996,6.75999998 2.49999996,12 C2.49999996,17.24 6.75999998,21.5 12,21.5 C17.24,21.5 21.5,17.24 21.5,12 C21.5,6.75999998 17.24,2.49999996 12,2.49999996 Z M11,7.99999998 L11,16 L8.99999999,16 L8.99999999,7.99999998 L11,7.99999998 Z M15,7.99999998 L15,16 L13,16 L13,7.99999998 L15,7.99999998 Z" id="Combined-Shape" fill="#262626"></path>
    </g>
</svg>