<?xml version="1.0" encoding="UTF-8"?>
<svg id="Ebene_1" xmlns="http://www.w3.org/2000/svg" version="1.1" xmlns:xlink="http://www.w3.org/1999/xlink" viewBox="0 0 918.4 918.4">
  <!-- Generator: Adobe Illustrator 29.8.2, SVG Export Plug-In . SVG Version: 2.1.1 Build 3)  -->
  <defs>
    <style>
      .st0 {
        fill: #fff;
      }

      .st1 {
        fill: #f2f2f2;
      }

      .st2 {
        fill: url(#Neues_Verlaufsfeld_1);
      }
    </style>
    <linearGradient id="Neues_Verlaufsfeld_1" data-name="Neues Verlaufsfeld 1" x1="459.2" y1="89.7" x2="459.2" y2="828.7" gradientUnits="userSpaceOnUse">
      <stop offset="0" stop-color="#fe319a"/>
      <stop offset="1" stop-color="#e20074"/>
    </linearGradient>
  </defs>
  <path class="st2" d="M828.4,271.4c-.4-16.1-1.4-32.3-4.2-48.3-2.9-16.2-7.6-31.2-15.1-45.9-7.3-14.4-16.9-27.6-28.4-39.1-11.4-11.4-24.7-21-39.1-28.4-14.7-7.5-29.7-12.2-45.9-15.1-15.9-2.9-32.2-3.8-48.3-4.2-7.4-.2-14.8-.3-22.2-.3-8.8,0-17.6,0-26.3,0l-101.9-.4h-76.2l-100.1.4c-8.8,0-17.6,0-26.4,0-7.4,0-14.8.1-22.2.3-16.1.4-32.4,1.4-48.4,4.2-16.2,2.9-31.3,7.6-46,15.1-14.5,7.3-27.7,16.9-39.2,28.4-11.5,11.4-21.1,24.6-28.4,39.1-7.5,14.7-12.2,29.7-15.2,45.9-2.9,15.9-3.8,32.2-4.3,48.2-.2,7.4-.3,14.8-.3,22.2,0,8.8-.5,19.7-.5,28.4v175.8l.5,100.8c0,8.8,0,17.6,0,26.4,0,7.4.1,14.8.3,22.2.4,16.1,1.4,32.4,4.3,48.3,2.9,16.2,7.7,31.2,15.1,45.9,7.4,14.4,17,27.7,28.5,39.1,11.5,11.5,24.7,21.1,39.2,28.4,14.7,7.5,29.8,12.2,46,15.1,16,2.9,32.2,3.8,48.4,4.2,7.4.2,14.8.3,22.2.3,8.8,0,17.6,0,26.4,0h278.3c8.8,0,17.6,0,26.3,0,7.4,0,14.8-.1,22.2-.3,16.1-.4,32.4-1.4,48.3-4.3,16.2-2.9,31.2-7.7,45.9-15.1,14.4-7.4,27.6-17,39.1-28.4,11.4-11.5,21-24.7,28.4-39.1,7.5-14.7,12.2-29.8,15.1-45.9,2.9-15.9,3.8-32.2,4.2-48.3.2-7.4.3-14.8.3-22.2,0-8.8,0-17.6,0-26.4v-278.8c0-8.8,0-17.5,0-26.3,0-7.4-.1-14.8-.3-22.2Z"/>
  <path id="logo_x5F_1" class="st0" d="M415.2,655c-47,0-92.3-17.9-126.5-50.2-7.2,1.6-14.6,2.4-22.1,2.4-13.3,0-26.5-2.6-38.8-7.8-11.8-5-22.6-12.2-31.7-21.3-9.1-9.1-16.3-19.8-21.3-31.7-5.2-12.3-7.9-25.4-7.8-38.8,0-11.5,2-23,5.9-33.9,3.8-10.5,9.3-20.2,16.3-28.9,7-8.6,15.3-16,24.7-21.8,9.5-6,20-10.2,31-12.7,3-52.3,46.3-93.1,98.7-93.1,9.5,0,19,1.4,28.1,4.1,7.6-9.9,16.2-18.9,25.8-26.9,9.6-8,20.1-14.9,31.3-20.5,11.3-5.7,23.3-10.1,35.6-13.1,12.8-3.1,25.8-4.6,39-4.6,19.9,0,39.7,3.6,58.4,10.6,18,6.8,34.7,16.7,49.3,29.2,14.5,12.4,26.8,27.3,36.3,43.9,9.7,17,16.3,35.5,19.5,54.8,11.9,2.5,23.2,7,33.5,13.4,10.2,6.2,19.2,14.1,26.7,23.3,7.6,9.3,13.6,19.8,17.7,31,4.3,11.7,6.4,24,6.4,36.5,0,14.2-2.8,28.3-8.4,41.4-5.3,12.6-13.1,24.1-22.8,33.8-9.7,9.7-21.2,17.5-33.8,22.8-13.1,5.5-27.2,8.4-41.4,8.4-3.8,0-7.5-.2-11.3-.6-9.1,10.1-20.2,18.3-32.6,23.9-12.8,5.8-26.8,8.9-40.9,8.8-15.1,0-29.9-3.4-43.4-10v-124.6h82.1l-125-127.9-125.7,127.9h82.8v151.5c-5.2.4-10.5.7-15.7.7Z"/>
  <path id="logo_x5F_2" class="st1" d="M598.8,531.4h-82.1v-28.6h54.2l27.9,28.6h0ZM430.9,531.4h-83.6l28.3-28.6h55.3v28.6h0Z"/>
</svg>