<?xml version="1.0" encoding="UTF-8"?>
<svg id="Ebene_1" xmlns="http://www.w3.org/2000/svg" version="1.1" viewBox="0 0 16 16">
  <!-- Generator: Adobe Illustrator 29.4.0, SVG Export Plug-In . SVG Version: 2.1.0 Build 152)  -->
  <defs>
    <style>
      .st0 {
        fill-rule: evenodd;
      }

      .st0, .st1 {
        fill: #999;
      }

      .st2 {
        fill: #fff;
      }

      .st3 {
        fill: #b2b2b2;
      }

      .st4 {
        fill: #ccc;
      }
    </style>
  </defs>
  <g id="Offline_logo">
    <g id="MagentaCLOUD-Product-logo">
      <circle id="Ellipse_12" class="st4" cx="9.06" cy="7.19" r="3.97"/>
      <circle id="Ellipse_13" class="st3" cx="5.23" cy="7.05" r="2.37"/>
      <g id="Gruppe_535">
        <circle id="Ellipse_39" class="st1" cx="3.39" cy="9.25" r="2.39"/>
        <path id="Pfad_506" class="st0" d="M7.54,8.46c.44-.05,1.32-.2,2.35.62.8.63.54,1.99.54,1.99-1.5,1.93-4.27,2.28-6.2.78-.28-.21-.53-.46-.74-.74,0,0,1.84-2.4,4.05-2.65Z"/>
        <path id="Pfad_507" class="st0" d="M12.79,9.99c0,1.31-1.06,2.37-2.37,2.37-1.31,0-2.37-1.06-2.37-2.37h4.74Z"/>
        <circle id="Ellipse_40" class="st1" cx="12.45" cy="9.04" r="2.55"/>
      </g>
      <path id="Schnittmenge_2" class="st2" d="M7.32,9.13h-1.99l3.01-3.07,3,3.07h-1.97v2.99s-.04-.02-.06-.03c-.6.38-1.29.62-2,.68v-3.63Z"/>
    </g>
  </g>
</svg>