<svg width="22" height="22" viewBox="0 0 22 22" fill="none" xmlns="http://www.w3.org/2000/svg">
<path d="M11 18C14.866 18 18 14.866 18 11C18 7.13401 14.866 4 11 4C7.13401 4 4 7.13401 4 11C4 14.866 7.13401 18 11 18Z" fill="#73C354"/>
<path d="M11.51 15.38L12.65 12.83L13.24 13.74C14.75 12.52 14.98 10.3 13.75 8.8C13.25 8.18 12.55 7.75 11.77 7.58C11.53 7.51 11.4 7.27 11.46 7.03C11.52 6.81 11.74 6.68 11.96 6.71C14.33 7.24 15.82 9.60001 15.29 11.97C15.07 12.96 14.51 13.85 13.7 14.47L14.28 15.37H11.5L11.51 15.38ZM10.04 15.3C7.67002 14.77 6.17002 12.42 6.70002 10.05C6.92002 9.05 7.49002 8.16 8.30002 7.53L7.73002 6.63H10.51L9.37002 9.18L8.78002 8.27C7.27002 9.49 7.04002 11.71 8.26002 13.21C8.76002 13.82 9.45002 14.25 10.22 14.43C10.46 14.49 10.61 14.72 10.55 14.96C10.5 15.16 10.33 15.3 10.12 15.3H10.02H10.04Z" fill="white"/>
</svg>
