<?xml version="1.0" encoding="UTF-8"?>
<svg id="Ebene_1" xmlns="http://www.w3.org/2000/svg" version="1.1" viewBox="0 0 16 16">
  <!-- Generator: Adobe Illustrator 29.4.0, SVG Export Plug-In . SVG Version: 2.1.0 Build 152)  -->
  <defs>
    <style>
      .st0 {
        fill: #fff;
      }

      .st1 {
        fill: #73c354;
      }
    </style>
  </defs>
  <g id="state-sync">
    <circle id="Ellipse_53" class="st1" cx="8" cy="8" r="7"/>
    <g id="icon_action_refresh_selected">
      <path id="Combined_Shape" class="st0" d="M8.51,12.38l1.14-2.55.59.91c1.51-1.22,1.74-3.44.51-4.94-.5-.62-1.2-1.05-1.98-1.22-.24-.07-.37-.31-.31-.55.06-.22.28-.35.5-.32,2.37.53,3.86,2.89,3.33,5.26-.22.99-.78,1.88-1.59,2.5l.58.9h-2.78ZM7.04,12.3c-2.37-.53-3.87-2.88-3.34-5.25.22-1,.79-1.89,1.6-2.52l-.57-.9h2.78l-1.14,2.55-.59-.91c-1.51,1.22-1.74,3.44-.52,4.94.5.61,1.19,1.04,1.96,1.22h0c.24.06.39.29.33.53-.05.2-.22.34-.43.34h-.1Z"/>
    </g>
  </g>
</svg>