<svg xmlns="http://www.w3.org/2000/svg" xmlns:xlink="http://www.w3.org/1999/xlink" width="4" height="4" viewBox="0 0 4 4">
  <defs>
    <clipPath id="clip-state-sync">
      <rect width="4" height="4"/>
    </clipPath>
  </defs>
  <g id="state-sync" clip-path="url(#clip-state-sync)">
    <circle id="Ellipse_53" data-name="Ellipse 53" cx="1.85" cy="1.85" r="1.85" transform="translate(0.15 0.15)" fill="#73c354"/>
    <g id="icon_action_refresh_selected" data-name="icon/action/refresh/selected" transform="translate(-0.581 -0.656)">
      <path id="Combined_Shape" data-name="Combined Shape" d="M1.3,2.313l.3-.675.156.24A.929.929,0,0,0,1.369.249.117.117,0,0,1,1.42.021a1.164,1.164,0,0,1,.461,2.053l.153.238Zm-.39-.021A1.163,1.163,0,0,1,.45.238L.3,0h.735l-.3.675L.58.435A.929.929,0,0,0,.962,2.063h0a.117.117,0,0,1-.026.231Z" transform="translate(1.417 1.5)" fill="#fff"/>
    </g>
  </g>
</svg>
