<svg xmlns="http://www.w3.org/2000/svg" xmlns:xlink="http://www.w3.org/1999/xlink" width="4" height="4" viewBox="0 0 4 4">
  <defs>
    <clipPath id="clip-state-pause">
      <rect width="4" height="4"/>
    </clipPath>
  </defs>
  <g id="state-pause" clip-path="url(#clip-state-pause)">
    <circle id="Ellipse_52" data-name="Ellipse 52" cx="1.85" cy="1.85" r="1.85" transform="translate(0.15 0.15)" fill="#df6d3f"/>
    <g id="Gruppe_543" data-name="Gruppe 543" transform="translate(0.075 0.125)">
      <path id="Pfad_521" data-name="Pfad 521" d="M1.364,258.922a.206.206,0,0,1-.206-.206V257.07a.206.206,0,0,1,.413,0v1.645A.206.206,0,0,1,1.364,258.922Z" transform="translate(0.148 -256.014)" fill="#fff"/>
      <path id="Pfad_522" data-name="Pfad 522" d="M2.29,258.922a.206.206,0,0,1-.206-.206V257.07a.206.206,0,0,1,.413,0v1.645A.206.206,0,0,1,2.29,258.922Z" transform="translate(0.048 -256.014)" fill="#fff"/>
    </g>
  </g>
</svg>
