<svg width="22" height="22" viewBox="0 0 22 22" fill="none" xmlns="http://www.w3.org/2000/svg">
<path d="M12.3629 15.0586C15.1819 15.0586 17.4672 12.7733 17.4672 9.95429C17.4672 7.13527 15.1819 4.85001 12.3629 4.85001C9.54387 4.85001 7.25861 7.13527 7.25861 9.95429C7.25861 12.7733 9.54387 15.0586 12.3629 15.0586Z" fill="#CCCCCC"/>
<path d="M7.43853 12.8215C9.12142 12.8215 10.4857 11.4572 10.4857 9.77432C10.4857 8.09143 9.12142 6.72717 7.43853 6.72717C5.75564 6.72717 4.39139 8.09143 4.39139 9.77432C4.39139 11.4572 5.75564 12.8215 7.43853 12.8215Z" fill="#B2B2B2"/>
<path d="M5.07286 15.6757C6.76995 15.6757 8.14571 14.3 8.14571 12.6029C8.14571 10.9058 6.76995 9.53003 5.07286 9.53003C3.37577 9.53003 2 10.9058 2 12.6029C2 14.3 3.37577 15.6757 5.07286 15.6757Z" fill="#999999"/>
<path fill-rule="evenodd" clip-rule="evenodd" d="M10.4086 11.5871C10.9743 11.5228 12.1057 11.33 13.43 12.3842C14.4586 13.1942 14.1243 14.9428 14.1243 14.9428C12.1957 17.4242 8.63427 17.8742 6.15284 15.9457C5.79284 15.6757 5.47142 15.3542 5.20142 14.9942C5.20142 14.9942 7.56713 11.9085 10.4086 11.5871Z" fill="#999999"/>
<path fill-rule="evenodd" clip-rule="evenodd" d="M17.1587 13.5543C17.1587 15.2386 15.7958 16.6015 14.1115 16.6015C12.4272 16.6015 11.0644 15.2386 11.0644 13.5543H17.1587Z" fill="#999999"/>
<path d="M16.7215 15.6115C18.5322 15.6115 20.0001 14.1436 20.0001 12.3329C20.0001 10.5222 18.5322 9.05432 16.7215 9.05432C14.9108 9.05432 13.4429 10.5222 13.4429 12.3329C13.4429 14.1436 14.9108 15.6115 16.7215 15.6115Z" fill="#999999"/>
<path d="M10.1258 12.4486H7.5672L11.4372 8.50146L15.2943 12.4486H12.7615V16.2929C12.7615 16.2929 12.7101 16.2672 12.6843 16.2543C11.9129 16.7429 11.0258 17.0515 10.1129 17.1286V12.4615L10.1258 12.4486Z" fill="white"/>
</svg>
