<svg xmlns="http://www.w3.org/2000/svg" xmlns:xlink="http://www.w3.org/1999/xlink" width="300" height="300" viewBox="0 0 300 300">
  <defs>
    <clipPath id="clip-Offline_logo">
      <rect width="300" height="300"/>
    </clipPath>
  </defs>
  <g id="Offline_logo" data-name="Offline logo" clip-path="url(#clip-Offline_logo)">
    <circle id="Ellipse_12" data-name="Ellipse 12" cx="72.071" cy="72.071" r="72.071" transform="translate(96.545 60.192)" fill="#ccc"/>
    <circle id="Ellipse_13" data-name="Ellipse 13" cx="42.99" cy="42.99" r="42.99" transform="translate(56.715 86.745)" fill="#b2b2b2"/>
    <path id="Pfad_434" data-name="Pfad 434" d="M211.047,110.97h-4.742l-1.264,1.264c-12.012,13.908-37.3,15.805-50.576,7.586a68.278,68.278,0,0,1-41.726,12.644,78.583,78.583,0,0,1-56.266-22.127A48.805,48.805,0,0,1,46.99,111.6a42.99,42.99,0,0,1,0-85.98A41.726,41.726,0,0,1,89.98,66.083c33.507-10.748,75.232-38.565,75.232-.632a46.264,46.264,0,1,1,45.835,45.519Z" transform="translate(18.893 100.32)" fill="#999" fill-rule="evenodd"/>
    <path id="Pfad_436" data-name="Pfad 436" d="M71.086,18l54.37,55.634H89.736v59.427c-.632,0-.632-.632-1.264-.632a76.371,76.371,0,0,1-36.036,12.644V73.634H16.4Z" transform="translate(84.887 93.401)" fill="#fff" fill-rule="evenodd"/>
  </g>
</svg>
