<svg xmlns="http://www.w3.org/2000/svg" xmlns:xlink="http://www.w3.org/1999/xlink" width="300" height="300" viewBox="0 0 300 300">
  <defs>
    <clipPath id="clip-Offline_logo">
      <rect width="300" height="300"/>
    </clipPath>
  </defs>
  <g id="Offline_logo" data-name="Offline logo" clip-path="url(#clip-Offline_logo)">
    <g id="MagentaCLOUD-Product-logo" transform="translate(13.209 19.493)">
      <circle id="Ellipse_12" data-name="Ellipse 12" cx="66.932" cy="66.932" r="66.932" transform="translate(87.756 48.507)" fill="#ccc"/>
      <circle id="Ellipse_13" data-name="Ellipse 13" cx="39.924" cy="39.924" r="39.924" transform="translate(50.203 73.166)" fill="#b2b2b2"/>
      <g id="Gruppe_535" data-name="Gruppe 535" transform="translate(-4.008 -15.287)">
        <circle id="Ellipse_39" data-name="Ellipse 39" cx="40.227" cy="40.227" r="40.227" transform="translate(22.8 125.122)" fill="#999"/>
        <path id="Pfad_506" data-name="Pfad 506" d="M136.269,154.593c7.374-.826,22.274-3.341,39.632,10.375,13.507,10.673,9.069,33.575,9.069,33.575a74.445,74.445,0,0,1-117.014.74S98.9,158.778,136.269,154.593Z" transform="translate(-3.151 -2.448)" fill="#999" fill-rule="evenodd"/>
        <path id="Pfad_507" data-name="Pfad 507" d="M230.406,182.271a39.939,39.939,0,0,1-79.878,0Z" transform="translate(-8.914 -4.43)" fill="#999" fill-rule="evenodd"/>
        <circle id="Ellipse_40" data-name="Ellipse 40" cx="43.001" cy="43.001" r="43.001" transform="translate(172.798 118.794)" fill="#999"/>
      </g>
      <path id="Schnittmenge_2" data-name="Schnittmenge 2" d="M106.575,99.62H73.109l50.786-51.666L174.388,99.62H141.215v50.318q-.5-.245-.995-.5a73.983,73.983,0,0,1-33.646,11.382Z" transform="translate(18.793 48.507)" fill="#fff"/>
    </g>
  </g>
</svg>
