<?xml version="1.0" encoding="utf-8"?>
<!-- Generator: Adobe Illustrator 28.2.0, SVG Export Plug-In . SVG Version: 6.00 Build 0)  -->
<svg version="1.1" id="Ebene_1" xmlns="http://www.w3.org/2000/svg" xmlns:xlink="http://www.w3.org/1999/xlink" x="0px" y="0px"
	 viewBox="0 0 24 24" style="enable-background:new 0 0 24 24;" xml:space="preserve">
<style type="text/css">
	.st0{fill-rule:evenodd;clip-rule:evenodd;fill:#E82010;}
</style>
<g id="icon_x2F_alert_x2F_warning_x2F_selected">
	<path id="Icon" class="st0" d="M12,1C5.9,1,1,5.9,1,12s4.9,11,11,11s11-4.9,11-11c0-2.9-1.2-5.7-3.2-7.8S14.9,1,12,1z M11,6.8h2
		v6.5h-2V6.8z M12,17.2c-0.7,0-1.2-0.6-1.2-1.2c0-0.7,0.6-1.2,1.2-1.2s1.2,0.6,1.2,1.2C13.2,16.7,12.7,17.2,12,17.2L12,17.2z"/>
</g>
</svg>
