<?xml version="1.0" encoding="utf-8"?>
<!-- Generator: Adobe Illustrator 28.1.0, SVG Export Plug-In . SVG Version: 6.00 Build 0)  -->
<svg version="1.1" id="Ebene_1" xmlns="http://www.w3.org/2000/svg" xmlns:xlink="http://www.w3.org/1999/xlink" x="0px" y="0px"
	 viewBox="0 0 24 24" style="enable-background:new 0 0 24 24;" xml:space="preserve">
<style type="text/css">
	.st0{fill:#2238DF;}
</style>
<g>
	<path class="st0" d="M12,0.5C5.6,0.5,0.5,5.6,0.5,12S5.6,23.5,12,23.5S23.5,18.4,23.5,12S18.4,0.5,12,0.5z M10.6,18.5
		c0.3,0.1,0.5,0.4,0.4,0.7s-0.4,0.5-0.7,0.4c-3.5-0.8-6.1-4-6.1-7.6c0-2.4,1.1-4.5,2.8-6l0.2-0.2L6,4h5.1L9,8.7L7.8,6.8
		C6.3,8,5.3,9.9,5.3,12C5.3,15.1,7.5,17.8,10.6,18.5z M18,20h-5.1l2.1-4.7l1.2,1.9c1.5-1.3,2.5-3.2,2.5-5.2c0-3.1-2.2-5.8-5.2-6.5
		C13.1,5.4,13,5.1,13,4.8s0.4-0.5,0.7-0.4c3.5,0.8,6.1,4,6.1,7.6c0,2.3-1.1,4.5-2.9,6l-0.2,0.2L18,20z"/>
</g>
</svg>
