<svg width="22" height="22" viewBox="0 0 22 22" fill="none" xmlns="http://www.w3.org/2000/svg">
<path d="M11 18C14.866 18 18 14.866 18 11C18 7.13401 14.866 4 11 4C7.13401 4 4 7.13401 4 11C4 14.866 7.13401 18 11 18Z" fill="#D82A48"/>
<path d="M11.95 11.02L14.37 8.61001C14.66 8.36001 14.68 7.94001 14.44 7.65001C14.19 7.36001 13.77 7.34001 13.48 7.58001C13.45 7.60001 13.43 7.63001 13.41 7.65001L11.01 10.05L8.60003 7.65001C8.35003 7.36001 7.93003 7.34001 7.64003 7.58001C7.35003 7.83001 7.33003 8.25001 7.57003 8.54001C7.59003 8.57001 7.62003 8.59001 7.64003 8.61001L10.04 11.02L7.64003 13.43C7.37003 13.7 7.37003 14.12 7.64003 14.39C7.77003 14.52 7.94003 14.58 8.11003 14.59C8.29003 14.59 8.47003 14.52 8.60003 14.39L11.01 11.97L13.42 14.37C13.55 14.5 13.72 14.57 13.9 14.57C14.08 14.57 14.25 14.5 14.38 14.37C14.65 14.1 14.65 13.68 14.38 13.41L11.96 11.02H11.95Z" fill="white"/>
</svg>
