<svg width="22" height="22" viewBox="0 0 22 22" fill="none" xmlns="http://www.w3.org/2000/svg">
<path d="M12.3714 4.85068C13.7064 4.8289 14.9954 5.33806 15.9551 6.26626C16.9148 7.19446 17.4667 8.46574 17.4894 9.80068C17.4671 11.1359 16.9154 12.4076 15.9557 13.3362C14.9959 14.2648 13.7067 14.7742 12.3714 14.7524C11.0362 14.7742 9.74696 14.2648 8.78721 13.3362C7.82746 12.4076 7.27577 11.1359 7.25345 9.80068C7.27622 8.46574 7.82811 7.19446 8.78781 6.26626C9.74751 5.33806 11.0365 4.8289 12.3714 4.85068Z" fill="#FB8AC4"/>
<path d="M7.47798 6.67467C8.27436 6.6616 9.04333 6.96531 9.61586 7.51903C10.1884 8.07275 10.5176 8.83116 10.5311 9.62753C10.5178 10.424 10.1887 11.1827 9.61615 11.7366C9.04361 12.2905 8.2745 12.5943 7.47798 12.5812C6.68145 12.5943 5.91235 12.2905 5.3398 11.7366C4.76725 11.1827 4.43814 10.424 4.42484 9.62753C4.43097 9.23303 4.51486 8.84363 4.67171 8.4816C4.82855 8.11957 5.05526 7.79204 5.33886 7.51775C5.62247 7.24347 5.95738 7.02782 6.32445 6.88315C6.69151 6.73848 7.0835 6.66763 7.47798 6.67467Z" fill="#F65AA8"/>
<path d="M16.7266 15.2298H16.3674L16.2817 15.3155C15.8079 15.7587 15.2098 16.0463 14.5677 16.1394C13.9257 16.2326 13.2705 16.1269 12.6903 15.8366C11.819 16.4352 10.7793 16.7397 9.72286 16.7058C8.24427 16.7398 6.81071 16.1958 5.72686 15.1895C5.50551 15.2394 5.27992 15.2681 5.05314 15.2752C4.6578 15.285 4.26447 15.216 3.89607 15.0722C3.52767 14.9284 3.19159 14.7128 2.9074 14.4378C2.62322 14.1627 2.39663 13.8339 2.24084 13.4704C2.08505 13.107 2.00318 12.7161 2 12.3206C2.00329 11.9253 2.08525 11.5345 2.24109 11.1711C2.39693 10.8077 2.62354 10.479 2.90771 10.2041C3.19188 9.92917 3.52793 9.71357 3.89627 9.56984C4.26461 9.42611 4.65787 9.35714 5.05314 9.36693C5.82626 9.33153 6.58187 9.60421 7.15422 10.1251C7.72658 10.6461 8.06897 11.3728 8.10629 12.1458C10.4857 11.4078 13.4489 9.49722 13.4489 12.1038C13.4897 11.2625 13.8526 10.4693 14.4624 9.88834C15.0723 9.30741 15.8822 8.98337 16.7244 8.98337C17.5667 8.98337 18.3766 9.30741 18.9864 9.88834C19.5962 10.4693 19.9592 11.2625 20 12.1038C19.9789 12.9526 19.6219 13.7585 19.0075 14.3445C18.393 14.9305 17.5712 15.2489 16.7223 15.2298" fill="#F82F99"/>
<path d="M11.4731 9.23669L15.3346 13.0587H7.56714L11.4731 9.23669Z" fill="#DA0072"/>
<path d="M11.4731 8.36841L15.3346 12.1904H12.7751V16.2721C12.7306 16.2721 12.7306 16.2293 12.6894 16.2293C11.9209 16.7252 11.0417 17.0235 10.13 17.0976V12.1904H7.56714L11.4731 8.36841Z" fill="white"/>
</svg>
