<?xml version="1.0" encoding="utf-8"?>
<!-- Generator: Adobe Illustrator 25.2.1, SVG Export Plug-In . SVG Version: 6.00 Build 0)  -->
<svg version="1.1" id="Ebene_1" xmlns="http://www.w3.org/2000/svg" xmlns:xlink="http://www.w3.org/1999/xlink" x="0px" y="0px"
	 viewBox="0 0 114.9 70.9" style="enable-background:new 0 0 114.9 70.9;" xml:space="preserve">
<style type="text/css">
	.st0{fill:#FFFFFF;}
</style>
<g>
	<polygon class="st0" points="22.8,33.7 18.8,33.7 14.2,33.7 14.2,42.3 22.8,42.3 	"/>
	<path class="st0" d="M14.6,14.2l-0.4,15l2.3,0.4c0.4-4.4,1.6-7.7,3.5-9.8c2-2.2,4.8-3.4,8.3-3.5v31.4c0,2.7-0.4,4.5-1.2,5.3
		c-0.7,0.7-1.8,1.1-3.5,1.3c-0.5,0-1.3,0.1-2.5,0.1v2.4h21v-2.4c-1.2,0-2,0-2.5-0.1c-1.6-0.2-2.8-0.6-3.5-1.3
		c-0.8-0.8-1.2-2.6-1.2-5.3V16.2c3.5,0.1,6.3,1.3,8.3,3.5c1.9,2.1,3.1,5.4,3.5,9.8l2.3-0.4l-0.4-15H14.6z"/>
	<polygon class="st0" points="40.4,33.7 40.4,42.3 49,42.3 49,33.7 44.6,33.7 	"/>
	<polygon class="st0" points="66.3,33.7 66.3,42.3 74.9,42.3 74.9,33.7 70.7,33.7 	"/>
	<polygon class="st0" points="92.1,33.7 92.1,42.3 100.7,42.3 100.7,33.7 96.3,33.7 	"/>
</g>
</svg>
