<?xml version="1.0" encoding="UTF-8"?>
<svg width="24px" height="24px" viewBox="0 0 24 24" version="1.1" xmlns="http://www.w3.org/2000/svg" xmlns:xlink="http://www.w3.org/1999/xlink">
    <title>icon/content/clipboard/default@svg</title>
    <defs>
        <path d="M6.66122447,3.42857139 C6.61224488,3.57551017 6.61224488,3.77142854 6.61224488,3.91836731 L6.61224488,3.91836731 L6.61224488,4.89795915 L4.65306119,4.89795915 L4.65306119,20.5714286 C4.65306119,21.4040817 5.28979589,22.0408164 6.12244896,22.0408164 L6.12244896,22.0408164 L17.877551,22.0408164 C18.7102041,22.0408164 19.3469388,21.4040817 19.3469388,20.5714286 L19.3469388,20.5714286 L19.3469388,4.89795915 L17.3877551,4.89795915 L17.3877551,3.91836731 C17.3877551,3.77142854 17.3877551,3.57551017 17.3387755,3.42857139 L17.3387755,3.42857139 L20.8163266,3.42857139 L20.8163266,20.5714286 C20.8163266,22.1877551 19.4938776,23.5102041 17.877551,23.5102041 L17.877551,23.5102041 L6.12244896,23.5102041 C4.50612242,23.5102041 3.18367343,22.1877551 3.18367343,20.5714286 L3.18367343,20.5714286 L3.18367343,3.42857139 Z M15.9183674,16.1632653 C16.3102041,16.1632653 16.6530612,16.5061225 16.6530612,16.8979592 C16.6530612,17.2897959 16.3102041,17.6326531 15.9183674,17.6326531 L15.9183674,17.6326531 L8.08163264,17.6326531 C7.6897959,17.6326531 7.34693876,17.2897959 7.34693876,16.8979592 C7.34693876,16.5061225 7.6897959,16.1632653 8.08163264,16.1632653 L8.08163264,16.1632653 Z M15.9183674,12.7346939 C16.3102041,12.7346939 16.6530612,13.077551 16.6530612,13.4693878 C16.6530612,13.8612245 16.3102041,14.2040816 15.9183674,14.2040816 L15.9183674,14.2040816 L8.08163264,14.2040816 C7.6897959,14.2040816 7.34693876,13.8612245 7.34693876,13.4693878 C7.34693876,13.077551 7.6897959,12.7346939 8.08163264,12.7346939 L8.08163264,12.7346939 Z M15.9183674,9.30612244 C16.3102041,9.30612244 16.6530612,9.64897958 16.6530612,10.0408163 C16.6530612,10.4326531 16.3102041,10.7755102 15.9183674,10.7755102 L15.9183674,10.7755102 L8.08163264,10.7755102 C7.6897959,10.7755102 7.34693876,10.4326531 7.34693876,10.0408163 C7.34693876,9.64897958 7.6897959,9.30612244 8.08163264,9.30612244 L8.08163264,9.30612244 Z M10.5306122,1.95918363 C10.5306122,1.07755097 11.3632653,0.342857094 12.2938776,0.48979587 C12.9795918,0.636734647 13.4693878,1.27346934 13.4693878,2.00816322 L13.4693878,2.00816322 L13.4693878,2.44897955 L14.4489796,2.44897955 C15.2816327,2.44897955 15.9183674,3.08571425 15.9183674,3.91836731 L15.9183674,3.91836731 L15.9183674,5.87755099 L8.08163264,5.87755099 L8.08163264,3.91836731 C8.08163264,3.08571425 8.71836733,2.44897955 9.5510204,2.44897955 L9.5510204,2.44897955 L10.5306122,2.44897955 Z" id="path-1"></path>
    </defs>
    <g id="icon/content/clipboard/default" stroke="none" stroke-width="1" fill="none" fill-rule="evenodd">
        <mask id="mask-2" fill="white">
            <use xlink:href="#path-1"></use>
        </mask>
        <use id="Combined-Shape" fill="#262626" xlink:href="#path-1"></use>
    </g>
</svg>