<?xml version="1.0" encoding="UTF-8"?>
<svg width="24px" height="24px" viewBox="0 0 24 24" version="1.1" xmlns="http://www.w3.org/2000/svg" xmlns:xlink="http://www.w3.org/1999/xlink">
    <title>icon/action/link/default@svg</title>
    <g id="icon/action/link/default" stroke="none" stroke-width="1" fill="none" fill-rule="evenodd">
        <path d="M11.94,8.79999999 C12.605,9.05499999 13.23,9.44499999 13.76,9.97999999 C14.87,11.09 15.42,12.625 15.275,14.185 C15.16,15.395 14.625,16.54 13.76,17.405 L13.76,17.405 L10.225,20.94 C9.20499999,21.965 7.85999998,22.475 6.51499998,22.475 C5.17499997,22.475 3.82999997,21.965 2.80499996,20.94 C0.759999953,18.895 0.759999953,15.56 2.80499996,13.515 L2.80499996,13.515 L6.33999998,9.97999999 C6.60999998,9.70499999 6.90499998,9.47499999 7.21499998,9.27499999 C7.19999998,9.44999999 7.18999998,9.62499999 7.18999998,9.79999999 C7.18999998,10.25 7.23499998,10.69 7.31999998,11.12 L7.31999998,11.12 L3.86499997,14.575 C2.40499996,16.04 2.40499996,18.42 3.86499997,19.88 C5.32999997,21.34 7.70499998,21.34 9.16999999,19.88 L9.16999999,19.88 L12.705,16.345 C13.32,15.73 13.705,14.91 13.785,14.045 C13.89,12.925 13.495,11.83 12.705,11.04 C12.425,10.765 12.11,10.535 11.77,10.36 C11.72,10.18 11.69,9.99499999 11.69,9.80499999 C11.69,9.44999999 11.785,9.10999999 11.94,8.79999999 Z M13.765,2.55999996 C15.815,0.514999952 19.145,0.514999952 21.19,2.55999996 C23.24,4.60499997 23.24,7.93499998 21.18,9.98499999 L21.18,9.98499999 L17.645,13.52 C17.375,13.795 17.08,14.025 16.77,14.225 C16.82,13.605 16.78,12.99 16.66,12.39 L16.66,12.39 L20.125,8.92499999 C21.585,7.45999998 21.585,5.07999997 20.125,3.61999997 C19.395,2.88999996 18.435,2.52499996 17.475,2.52499996 C16.515,2.52499996 15.555,2.88999996 14.825,3.61999997 L14.825,3.61999997 L11.29,7.15499998 C10.58,7.85999998 10.19,8.80499999 10.19,9.80499999 C10.19,10.805 10.58,11.745 11.29,12.455 C11.57,12.735 11.885,12.96 12.22,13.135 C12.285,13.385 12.32,13.64 12.295,13.905 C12.275,14.125 12.21,14.405 12.065,14.7 C11.395,14.445 10.77,14.055 10.23,13.515 C9.23499999,12.525 8.68999999,11.205 8.68999999,9.80499999 C8.68999999,8.40499999 9.23999999,7.08499998 10.23,6.09499998 L10.23,6.09499998 Z" id="Combined-Shape" fill="#262626"></path>
    </g>
</svg>