<?xml version="1.0" encoding="UTF-8"?>
<svg width="24px" height="24px" viewBox="0 0 24 24" version="1.1" xmlns="http://www.w3.org/2000/svg" xmlns:xlink="http://www.w3.org/1999/xlink">
    <title>icon/user_file/logout/default@svg</title>
    <g id="icon/user_file/logout/default" stroke="none" stroke-width="1" fill="none" fill-rule="evenodd">
        <path d="M18,16 L23.7,19.75 L18,23.5 L18,20.5 L14.75,20.5 C14.35,20.5 14,20.15 14,19.75 C14,19.35 14.35,19 14.75,19 L14.75,19 L18,19 L18,16 Z M7.39999998,15.5 L10.5,18.6 L13.6,15.5 L16.0289063,15.5007813 C16.2,15.503125 16.35,15.5125 16.5,15.55 L16.5,15.55 L16.5,17.5 L14.75,17.5 C13.35,17.5 12.25,18.75 12.55,20.2 C12.6,20.3 12.6,20.4 12.65,20.5 L12.65,20.5 L0.299999951,20.5 L0.449999952,19.45 C0.849999954,17.15 2.79999995,15.5 5.14999997,15.5 L5.14999997,15.5 L7.39999998,15.5 Z M10.5,0.999999954 C14,0.999999954 16.5,3.49999995 16.5,6.99999995 C16.5,10.4 14.1,14 10.5,14 C6.89999998,14 4.49999997,10.4 4.49999997,6.99999995 C4.49999997,3.49999995 6.99999997,0.999999954 10.5,0.999999954 Z M10.5,2.49999996 C7.89999998,2.49999996 5.99999997,4.39999997 5.99999997,6.99999996 C5.99999997,9.64999999 7.79999998,12.5 10.5,12.5 C13.2,12.5 15,9.64999999 15,6.99999996 C15,4.39999997 13.1,2.49999996 10.5,2.49999996 Z" id="Combined-Shape" fill="#262626"></path>
    </g>
</svg>