<?xml version="1.0" encoding="UTF-8"?>
<svg width="24px" height="24px" viewBox="0 0 24 24" version="1.1" xmlns="http://www.w3.org/2000/svg" xmlns:xlink="http://www.w3.org/1999/xlink">
    <title>/svg/icon/action/more/default</title>
    <g id="icon/action/more/default" stroke="none" stroke-width="1" fill="none" fill-rule="evenodd">
        <path d="M12,10.5 C12.8284271,10.5 13.5,11.1715729 13.5,12 C13.5,12.8284271 12.8284271,13.5 12,13.5 C11.1715729,13.5 10.5,12.8284271 10.5,12 C10.5,11.1715729 11.1715729,10.5 12,10.5 Z M19,10.5 C19.8284272,10.5 20.5,11.1715729 20.5,12 C20.5,12.8284271 19.8284272,13.5 19,13.5 C18.1715729,13.5 17.5,12.8284271 17.5,12 C17.5,11.1715729 18.1715729,10.5 19,10.5 Z M4.99999996,10.5 C5.8284271,10.5 6.49999996,11.1715729 6.49999996,12 C6.49999996,12.8284271 5.8284271,13.5 4.99999996,13.5 C4.17157284,13.5 3.49999996,12.8284271 3.49999996,12 C3.49999996,11.1715729 4.17157284,10.5 4.99999996,10.5 Z" id="Icon" fill="#000000"></path>
    </g>
</svg>