<?xml version="1.0" encoding="UTF-8"?>
<svg width="24px" height="24px" viewBox="0 0 24 24" version="1.1" xmlns="http://www.w3.org/2000/svg" xmlns:xlink="http://www.w3.org/1999/xlink">
    <title>/svg/icon/service/settings/default</title>
    <g id="icon/service/settings/default" stroke="none" stroke-width="1" fill="none" fill-rule="evenodd">
        <path d="M14,0.999999954 L14.5,3.74999997 C14.6416667,4.45833329 15.3631173,4.76527775 15.9482939,4.46022802 L16.05,4.39999997 L18.35,2.79999996 L21.2,5.64999997 L19.6,7.94999998 C19.2222223,8.51666665 19.513426,9.26172838 20.1366427,9.46912719 L20.25,9.49999995 L23,9.99999995 L23,14 L20.25,14.5 C19.5416666,14.6416667 19.2347222,15.3631173 19.539772,15.9482939 L19.6,16.05 L21.2,18.35 L18.35,21.2 L16.05,19.6 C15.4833333,19.2222223 14.7382716,19.513426 14.5308727,20.1366427 L14.5,20.25 L14,23 L9.99999995,23 L9.49999995,20.25 C9.35833332,19.5888889 8.6368827,19.2399692 8.05170609,19.5402092 L7.94999998,19.6 L5.64999997,21.2 L2.79999996,18.35 L4.39999997,16.05 C4.77777775,15.4833333 4.48657404,14.7382716 3.8633573,14.5308727 L3.74999997,14.5 L0.999999954,14 L0.999999954,9.99999995 L3.74999997,9.49999995 C4.45833329,9.35833332 4.76527775,8.6368827 4.46022802,8.05170609 L4.39999997,7.94999998 L2.79999996,5.64999997 L5.64999997,2.79999996 L7.94999998,4.39999997 C8.51666665,4.77777775 9.26172838,4.48657404 9.46912719,3.8633573 L9.49999995,3.74999997 L9.99999995,0.999999954 L14,0.999999954 Z M12.75,2.49999996 L11.25,2.49999996 L10.95,3.99999996 C10.75,5.19999997 9.69999999,6.04999998 8.49999996,6.04999998 C8.06249996,6.04999998 7.62499996,5.93515622 7.25449216,5.70546872 L5.79999997,4.69999997 L4.74999997,5.74999997 L5.64999997,7.04999998 C6.11428569,7.69999998 6.23367345,8.52244897 5.96813044,9.27715013 L5.89999997,9.44999999 C5.62142854,10.1928571 4.99795915,10.7201531 4.2297558,10.9117894 L4.04999997,10.95 L2.49999996,11.25 L2.49999996,12.75 L4.04999997,13 C4.89999997,13.15 5.54999997,13.7 5.89999997,14.5 C6.22499998,15.2428572 6.16198977,16.0719388 5.75100216,16.7470481 L5.64999997,16.9 L4.74999997,18.2 L5.79999997,19.25 L7.09999998,18.35 C7.49999996,18.05 7.99999996,17.9 8.49999996,17.9 C9.64545453,17.9 10.6542355,18.6744835 10.9175244,19.78858 L11.25,21.5 L12.75,21.5 L13.05,19.95 C13.25,18.75 14.3,17.9 15.5,17.9 C15.9375,17.9 16.375,18.0148438 16.7455078,18.2445313 L18.2,19.25 L19.25,18.2 L18.35,16.9 C17.85,16.2 17.8,15.3 18.1,14.6 C18.3785715,13.8571429 19.0020408,13.3298469 19.7702442,13.1382106 L19.95,13.1 L21.5,12.8 L21.5,11.3 L19.95,11 C19.1,10.85 18.45,10.3 18.1,9.49999996 C17.775,8.75714284 17.8380102,7.92806121 18.2489978,7.25295188 L18.35,7.09999998 L19.25,5.79999997 L18.2,4.74999997 L16.9,5.64999997 C16.5,5.94999997 16,6.09999998 15.5,6.09999998 C14.3545455,6.09999998 13.3457645,5.3255165 13.0824756,4.21141995 L12.75,2.49999996 Z M12,8.99999999 C13.6568543,8.99999999 15,10.3431457 15,12 C15,13.6568543 13.6568543,15 12,15 C10.3431457,15 8.99999999,13.6568543 8.99999999,12 C8.99999999,10.3431457 10.3431457,8.99999999 12,8.99999999 Z" id="Icon" fill="#000000"></path>
    </g>
</svg>